# xmcd
#
# Track frame offsets: 
#        150
#        13507
#        26447
#        48872
#        62802
#        76252
#        90357
#        111297
#        125405
#        137692
#        149070
#
# Disc length: 2138 seconds
#
# Revision: 0
# Processed by: cddbd v1.4PL0 Copyright (c) Steve Scherf et al.
# Submitted via: ExactAudioCopy v0.90b4
#
DISCID=8c08580b
DTITLE=Ann Peebles - Tellin' It
DYEAR=1976
DGENRE=Soul
TTITLE0=Come To Mama
TTITLE1=I Don't Lend My Man
TTITLE2=I Needed Somebody
TTITLE3=Stand By Woman
TTITLE4=It Was Jealousy
TTITLE5=Doctor Love Power
TTITLE6=You Can't Hold A Man
TTITLE7=Beware
TTITLE8=Put Yourself In My Place
TTITLE9=Love Played A Game
TTITLE10=I'm Leaving You
EXTD=
EXTT0=
EXTT1=
EXTT2=
EXTT3=
EXTT4=
EXTT5=
EXTT6=
EXTT7=
EXTT8=
EXTT9=
EXTT10=
PLAYORDER=
